<?xml version="1.0"?>
<svg xmlns="http://www.w3.org/2000/svg" id="Layer_1" data-name="Layer 1" viewBox="0 0 841.89 595.28" width="1200" height="847.9809976247">
  <defs>
    <style>
      .cls-1 {
        fill: #055183;
      }

      .cls-2 {
        fill: #018ed0;
      }

      .cls-3 {
        fill: #008dd2;
      }

      .cls-4 {
        fill: #038dd3;
      }

      .cls-5 {
        fill: #065184;
      }

      .cls-6 {
        fill: #f4f4f4;
      }
    </style>
  </defs>
  <g>
    <path class="cls-1" d="M637,328.42a39.87,39.87,0,0,1-39.88-39.88V228.73H617v49.85h0v10a19.91,19.91,0,0,0,29.91,17.25v21.38A40.47,40.47,0,0,1,637,328.42Z"/>
    <polyline class="cls-2" points="622.01 276.46 641.95 276.46 641.95 256.52"/>
    <polyline class="cls-1" points="636.96 255.52 617.02 255.52 617.02 275.46"/>
    <path class="cls-1" d="M384.68,328.43a39.88,39.88,0,0,1-39.88-39.87V228.74h19.94v49.85h0v10a19.93,19.93,0,0,0,29.91,17.25v21.37A40.47,40.47,0,0,1,384.68,328.43Z"/>
    <polyline class="cls-3" points="369.73 276.47 389.67 276.47 389.67 256.53"/>
    <polyline class="cls-1" points="384.68 255.53 364.74 255.53 364.74 275.47"/>
    <path class="cls-1" d="M582.08,243.63H548.64s-23.64-1.06-24.83,24.78,24.53,24.78,24.53,24.78L560,276.82l-9.21-.44c-6.58-.32-8.88-9-3.24-12.42l.25-.15a2.79,2.79,0,0,1,1.39-.35h24.11Z"/>
    <path class="cls-4" d="M531,327.7h33.44s23.64,1.06,24.83-24.78-24.53-24.78-24.53-24.78L553,294.51l9.2.44c6.59.32,8.89,9,3.24,12.42l-.24.15a2.81,2.81,0,0,1-1.39.35H539.74Z"/>
    <path class="cls-1" d="M248.67,302.7l15.72,12.38a36,36,0,0,1-10,8.19l0,0a39.87,39.87,0,1,1-19.53-74.63,40.22,40.22,0,0,1,34.21,19.39l-24.52,31.56L229,287.18l13.27-17.07a18.27,18.27,0,0,0-7.38-1.49,19.91,19.91,0,1,0,13.83,34.08Z"/>
    <path class="cls-5" d="M336.16,288.56v39.87H316.22V288.56a19.94,19.94,0,0,0-19.94-19.94v59.81H276.34V248.68h19.94A39.88,39.88,0,0,1,336.16,288.56Z"/>
    <path class="cls-1" d="M400.76,288.56a39.88,39.88,0,0,1,39.88-39.88v19.94a19.94,19.94,0,0,0-19.94,19.94v39.87H400.76Z"/>
    <path class="cls-1" d="M481,328.43c-15-.09-30-9.45-34-27.11-1.4-5.59-.84-8.13-.84-52.64h19.94c0,41.17-1.21,48.72,4.12,54.7a14.42,14.42,0,0,0,21.59,0c5.33-6,4.12-13.53,4.12-54.7h19.93c0,44.51.56,47.05-.84,52.64C511.05,319,496,328.34,481,328.43Z"/>
    <polygon class="cls-2" points="400.76 341.72 412.5 366.54 646.93 366.54 646.93 341.72 400.76 341.72"/>
    <g>
      <path class="cls-6" d="M456.54,351.25l-3,.65a2.39,2.39,0,0,0-2.32-1.16A2.61,2.61,0,0,0,450,351c-.31.17-.46.37-.46.59s.18.48.54.64a17.75,17.75,0,0,0,2.28.62,18.9,18.9,0,0,1,2.49.66,4,4,0,0,1,1.46.89,1.81,1.81,0,0,1,.55,1.31,2.45,2.45,0,0,1-1.57,2.14,9,9,0,0,1-4.22.84q-4.44,0-5.67-2.56l3.14-.52a2.5,2.5,0,0,0,2.62,1.41,3.61,3.61,0,0,0,1.51-.27c.39-.19.58-.43.58-.73a.75.75,0,0,0-.41-.61,6.6,6.6,0,0,0-1.86-.58,23.12,23.12,0,0,1-2.8-.69,3.92,3.92,0,0,1-1.52-.89,1.76,1.76,0,0,1-.6-1.31,2.34,2.34,0,0,1,1.42-2.06,7.5,7.5,0,0,1,3.75-.81Q455.49,349.07,456.54,351.25Z"/>
      <path class="cls-6" d="M462.63,349.22h3.61l4.66,9.33h-3.67l-.81-1.93h-4.6l-.8,1.93h-3.3Zm3.11,5.8-1.65-3.82L462.51,355Z"/>
      <path class="cls-6" d="M472.66,349.22h3.59v9.33h-3.59Z"/>
      <path class="cls-6" d="M479.73,349.22h3.59v7.58h5.26v1.75h-8.85Z"/>
      <path class="cls-6" d="M490.55,349.22h3.59v9.33h-3.59Z"/>
      <path class="cls-6" d="M497.49,349.22h4l4.2,5.79v-5.79h2.77v9.33h-3.2l-5-6.76v6.76h-2.77Z"/>
      <path class="cls-6" d="M517.51,353.57h5.67v5h-1.52l-.47-1.07a5.62,5.62,0,0,1-3.94,1.21,7.1,7.1,0,0,1-4.42-1.25,4,4,0,0,1-1.64-3.38,4.5,4.5,0,0,1,1.61-3.64,7.24,7.24,0,0,1,4.76-1.35q5,0,5.62,3.2l-3.23.3a2.08,2.08,0,0,0-2.32-1.83,2.71,2.71,0,0,0-1.93.68A3.43,3.43,0,0,0,515,354a3.22,3.22,0,0,0,.71,2.36,2.88,2.88,0,0,0,2.07.68c1.46,0,2.19-.61,2.2-1.85h-2.44Z"/>
      <path class="cls-6" d="M542.6,353.88q0,4.81-5.92,4.81a6.87,6.87,0,0,1-4.44-1.23,4.37,4.37,0,0,1-1.49-3.58q0-4.81,5.92-4.81a6.92,6.92,0,0,1,4.41,1.21A4.29,4.29,0,0,1,542.6,353.88Zm-3.78,0a4.24,4.24,0,0,0-.51-2.51,2,2,0,0,0-1.64-.63,2,2,0,0,0-1.63.63,6.38,6.38,0,0,0,0,5,1.91,1.91,0,0,0,1.63.65,2,2,0,0,0,1.63-.62A4.18,4.18,0,0,0,538.82,353.88Z"/>
      <path class="cls-6" d="M545.36,349.22h4l4.19,5.79v-5.79h2.78v9.33h-3.21l-5-6.76v6.76h-2.78Z"/>
      <path class="cls-6" d="M562.79,349.22H573V351h-3.34v7.58H566V351h-3.25Z"/>
      <path class="cls-6" d="M574.6,349.22h5.14c1,0,1.76,0,2.29.07a5.84,5.84,0,0,1,1.61.43,3.09,3.09,0,0,1,1.27.94,2.14,2.14,0,0,1,.46,1.34c0,1.17-.77,2-2.3,2.47l3,4.08h-3.91L580,354.86h-1.8v3.69H574.6Zm3.59,1.51v2.61h1.58c1.4,0,2.11-.44,2.11-1.34a1,1,0,0,0-.31-.76,1.61,1.61,0,0,0-.73-.41,5.28,5.28,0,0,0-1.21-.1Z"/>
      <path class="cls-6" d="M588.2,349.22h3.59v5.33a4.71,4.71,0,0,0,.18,1.57,1.23,1.23,0,0,0,.75.67,3.58,3.58,0,0,0,1.39.23,3.37,3.37,0,0,0,1.43-.25,1.1,1.1,0,0,0,.64-.67,6.62,6.62,0,0,0,.12-1.55v-5.33h3v5.25a6.57,6.57,0,0,1-.31,2.34,2.78,2.78,0,0,1-1.62,1.33,9.28,9.28,0,0,1-3.57.55,11,11,0,0,1-3.35-.41,3.29,3.29,0,0,1-1.73-1.14,4.67,4.67,0,0,1-.52-2.59Z"/>
      <path class="cls-6" d="M612.77,351.25l-3,.65a2.39,2.39,0,0,0-2.32-1.16,2.61,2.61,0,0,0-1.25.26c-.3.17-.46.37-.46.59s.18.48.55.64a16.8,16.8,0,0,0,2.28.62,18.69,18.69,0,0,1,2.48.66,4,4,0,0,1,1.46.89,1.81,1.81,0,0,1,.55,1.31,2.45,2.45,0,0,1-1.57,2.14,9,9,0,0,1-4.22.84q-4.42,0-5.67-2.56l3.14-.52a2.5,2.5,0,0,0,2.62,1.41,3.61,3.61,0,0,0,1.51-.27c.39-.19.58-.43.58-.73a.74.74,0,0,0-.4-.61,6.83,6.83,0,0,0-1.87-.58,23.62,23.62,0,0,1-2.8-.69,4,4,0,0,1-1.52-.89,1.76,1.76,0,0,1-.6-1.31,2.34,2.34,0,0,1,1.42-2.06,7.5,7.5,0,0,1,3.75-.81Q611.72,349.07,612.77,351.25Z"/>
      <path class="cls-6" d="M614.41,349.22h10.18V351h-3.34v7.58h-3.59V351h-3.25Z"/>
    </g>
  </g>
</svg>
